<svg xmlns="http://www.w3.org/2000/svg" width="208" height="196" viewBox="0 0 208 196" fill="none">
<path d="M172.343 27.4253L124.86 24.5377C121.801 24.3517 119.171 26.6806 118.985 29.7395L115.799 82.1163C115.613 85.1752 117.942 87.8057 121.001 87.9917L168.485 90.8793C171.543 91.0653 174.174 88.7364 174.36 85.6775L177.545 33.3007C177.731 30.2418 175.402 27.6113 172.343 27.4253Z" fill="#8D8D8D" stroke="#a3b3ff" stroke-miterlimit="10"/>
<path d="M113.709 52.1616C113.709 52.1616 110.08 56.6416 99.4176 59.8416C88.7552 63.0416 86.1888 64.7504 86.1888 64.7504C86.1888 64.7504 80 66.8816 77.8688 72.2128C75.7376 77.544 77.0176 80.3216 89.3888 79.4704C101.76 78.6192 127.36 68.5904 127.36 68.5904C127.36 68.5904 132.058 60.0528 130.989 52.8016C129.92 45.5504 115.84 49.1728 113.709 52.1616Z" fill="white"/>
<mask id="mask0_1006_169" style="mask-type:luminance" maskUnits="userSpaceOnUse" x="77" y="48" width="55" height="32">
<path d="M113.709 52.1616C113.709 52.1616 110.08 56.6416 99.4176 59.8416C88.7552 63.0416 86.1888 64.7504 86.1888 64.7504C86.1888 64.7504 80 66.8816 77.8688 72.2128C75.7376 77.544 77.0176 80.3216 89.3888 79.4704C101.76 78.6192 127.36 68.5904 127.36 68.5904C127.36 68.5904 132.058 60.0528 130.989 52.8016C129.92 45.5504 115.84 49.1728 113.709 52.1616Z" fill="white"/>
</mask>
<g mask="url(#mask0_1006_169)">
<g style="mix-blend-mode:multiply" opacity="0.49">
<path d="M85.1711 74.7088C85.1711 74.7088 85.4207 77.1472 85.6447 79.6176C86.7647 79.6176 87.9999 79.5664 89.3887 79.4704C101.76 78.6128 127.36 68.5904 127.36 68.5904C129.18 65.1151 130.407 61.3598 130.989 57.48L129.549 53.3712C129.549 53.3712 122.291 61.48 115.469 66.1712C108.646 70.8624 85.1711 74.7088 85.1711 74.7088Z" fill="#8D8D8D"/>
</g>
</g>
<path d="M113.709 52.1616C113.709 52.1616 110.08 56.6416 99.4176 59.8416C88.7552 63.0416 86.1888 64.7504 86.1888 64.7504C86.1888 64.7504 80 66.8816 77.8688 72.2128C75.7376 77.544 77.0176 80.3216 89.3888 79.4704C101.76 78.6192 127.36 68.5904 127.36 68.5904C127.36 68.5904 132.058 60.0528 130.989 52.8016C129.92 45.5504 115.84 49.1728 113.709 52.1616Z" stroke="#a3b3ff" stroke-miterlimit="10"/>
<path d="M86.6304 76.04C86.6304 76.04 112.109 72.0848 124.723 64.9104" stroke="#a3b3ff" stroke-width="0.5" stroke-miterlimit="10"/>
<path d="M108.07 75.2784C108.826 72.808 109.632 68.4624 107.949 64.1104C107.064 61.7539 105.373 59.7877 103.174 58.5616C102.029 59.0032 100.781 59.432 99.4175 59.8416L98.4255 60.1424C100.666 61.5184 104.243 64.4816 104.538 69.4416C104.721 71.7463 104.68 74.0632 104.416 76.36C105.638 76.008 106.861 75.6496 108.07 75.2784Z" fill="#a3b3ff" stroke="#a3b3ff" stroke-miterlimit="10"/>
<path d="M131.04 41.6912C129.994 40.6617 128.754 39.8503 127.392 39.304C118.234 35.8224 113.312 46.2864 111.61 53.4416C111.61 53.4416 113.741 55.1504 119.072 54.2928C124.403 53.4352 132.083 49.8128 132.941 46.824C133.44 44.9616 132.454 43.1248 131.04 41.6912Z" fill="#a3b3ff" stroke="#a3b3ff" stroke-miterlimit="10"/>
<path d="M87.8975 67.0928C87.8975 67.0928 87.8975 72.0016 84.4799 73.2816C81.0623 74.5616 77.8687 72.2128 77.8687 72.2128C77.8687 72.2128 77.2287 62.8304 78.0799 61.1216C78.9311 59.4128 86.3999 63.0416 87.8975 67.0928Z" fill="white" stroke="#a3b3ff" stroke-miterlimit="10"/>
<path d="M136.685 39.8672C136.685 39.8672 130.925 40.6608 129.517 42.4272C128.109 44.1936 120.358 86.2288 119.962 87.4256C119.565 88.6224 121.152 92.4048 126.131 97.7808C131.11 103.157 137.28 104.75 143.251 105.147C149.222 105.544 163.36 102.587 166.746 99.3872C170.131 96.1872 169.734 87.8352 169.734 83.2592C169.734 78.6832 171.526 47.2208 170.33 44.4368C169.133 41.6528 161.37 39.2592 160.179 39.2592C158.989 39.2592 138.08 39.6688 136.685 39.8672Z" fill="white"/>
<mask id="mask1_1006_169" style="mask-type:luminance" maskUnits="userSpaceOnUse" x="119" y="39" width="52" height="67">
<path d="M136.685 39.8672C136.685 39.8672 130.925 40.6608 129.517 42.4272C128.109 44.1936 120.358 86.2288 119.962 87.4256C119.565 88.6224 121.152 92.4048 126.131 97.7808C131.11 103.157 137.28 104.75 143.251 105.147C149.222 105.544 163.36 102.587 166.746 99.3872C170.131 96.1872 169.734 87.8352 169.734 83.2592C169.734 78.6832 171.526 47.2208 170.33 44.4368C169.133 41.6528 161.37 39.2592 160.179 39.2592C158.989 39.2592 138.08 39.6688 136.685 39.8672Z" fill="white"/>
</mask>
<g mask="url(#mask1_1006_169)">
<g style="mix-blend-mode:multiply" opacity="0.49">
<path d="M169.734 83.272C169.734 78.6896 171.526 47.2336 170.33 44.4432C169.133 41.6528 161.37 39.272 160.179 39.272C158.989 39.272 138.074 39.6688 136.685 39.8672C135.635 40.0257 134.595 40.2394 133.568 40.5072C136.128 44.9872 141.734 51.5408 152.589 52.0976C156.827 52.3649 161.079 51.9105 165.165 50.7536L162.829 76.84L144.73 75.1376L158.131 82.3888L158.989 93.48L168.653 96.136C169.952 92.2 169.734 86.6896 169.734 83.272Z" fill="#8D8D8D"/>
</g>
</g>
<path d="M136.685 39.8672C136.685 39.8672 130.925 40.6608 129.517 42.4272C128.109 44.1936 120.358 86.2288 119.962 87.4256C119.565 88.6224 121.152 92.4048 126.131 97.7808C131.11 103.157 137.28 104.75 143.251 105.147C149.222 105.544 163.36 102.587 166.746 99.3872C170.131 96.1872 169.734 87.8352 169.734 83.2592C169.734 78.6832 171.526 47.2208 170.33 44.4368C169.133 41.6528 161.37 39.2592 160.179 39.2592C158.989 39.2592 138.08 39.6688 136.685 39.8672Z" stroke="#a3b3ff" stroke-miterlimit="10"/>
<path d="M145.92 84.0528C136.813 84.0528 125.587 69.9728 125.114 69.3968L126.618 68.2064C126.733 68.3472 137.741 82.1328 145.92 82.1328C148.294 82.1328 149.882 81.5632 150.637 80.4368C151.789 78.7216 150.758 76.0784 150.746 76.0528L152.525 75.3232C152.582 75.4704 153.965 78.9264 152.23 81.512C151.098 83.1952 148.96 84.0528 145.92 84.0528Z" fill="#a3b3ff" stroke="#a3b3ff" stroke-miterlimit="10"/>
<path d="M116.838 88.6544C117.395 88.1616 118.118 87.528 118.758 87.0352C118.246 86.9712 115.494 86.5616 114.726 84.6352C113.958 82.7088 115.162 79.88 118.112 76.2C127.117 64.9872 141.466 62.6256 141.613 62.6064L141.325 60.616C140.685 60.712 126.125 63.0992 116.64 74.9136C113.139 79.272 111.904 82.8048 112.96 85.416C113.327 86.2085 113.866 86.9099 114.536 87.4697C115.207 88.0296 115.993 88.4342 116.838 88.6544Z" fill="#a3b3ff" stroke="#a3b3ff" stroke-miterlimit="10"/>
<path d="M143.765 59.4778L140.78 59.3172L140.534 63.893L143.519 64.0536L143.765 59.4778Z" fill="white" stroke="#a3b3ff" stroke-miterlimit="10"/>
<path d="M149.429 74.0501L149.248 77.0334L153.823 77.31L154.003 74.3267L149.429 74.0501Z" fill="white" stroke="#a3b3ff" stroke-miterlimit="10"/>
<path d="M143.258 55.0096L142.061 72.04C142.009 72.8034 142.261 73.5563 142.76 74.136C143.259 74.7156 143.967 75.0754 144.73 75.1376L161.504 76.4624C161.897 76.493 162.292 76.4432 162.665 76.3161C163.039 76.189 163.382 75.9873 163.675 75.7233C163.968 75.4593 164.204 75.1384 164.368 74.7802C164.533 74.4221 164.623 74.0342 164.634 73.64L165.082 55.8736C165.101 55.11 164.817 54.3698 164.294 53.8137C163.77 53.2577 163.048 52.9308 162.285 52.904L146.285 52.3152C145.528 52.2799 144.788 52.5421 144.222 53.0457C143.656 53.5492 143.31 54.2541 143.258 55.0096Z" fill="white" stroke="#a3b3ff" stroke-miterlimit="10"/>
<path d="M150.918 52.4816L150.419 63.3616L155.795 63.7584L156.486 52.6864L150.918 52.4816Z" fill="#8D8D8D" stroke="#a3b3ff" stroke-miterlimit="10"/>
<path d="M163.558 68.7376C163.558 69.4075 163.36 70.0623 162.987 70.6192C162.615 71.1761 162.086 71.61 161.467 71.8661C160.848 72.1221 160.167 72.1888 159.51 72.0577C158.853 71.9265 158.25 71.6034 157.777 71.1293C157.303 70.6552 156.981 70.0513 156.851 69.3942C156.722 68.737 156.789 68.0561 157.047 67.4375C157.304 66.819 157.739 66.2907 158.296 65.9195C158.854 65.5482 159.509 65.3507 160.179 65.352C160.623 65.352 161.063 65.4396 161.474 65.6098C161.884 65.78 162.257 66.0295 162.571 66.344C162.885 66.6585 163.134 67.0317 163.303 67.4425C163.472 67.8532 163.559 68.2933 163.558 68.7376Z" fill="#8D8D8D" stroke="#a3b3ff" stroke-miterlimit="10"/>
<path d="M76.9087 81.9216C76.9087 81.9216 81.7087 82.7728 85.0175 80.3216C88.3263 77.8704 86.5087 73.4928 83.5199 71.0416C80.5311 68.5904 74.4575 67.8416 71.9999 69.0128C69.5423 70.184 70.8287 74.7728 71.5775 77.2304C72.3263 79.688 73.5999 81.4928 76.9087 81.9216Z" fill="white" stroke="#a3b3ff" stroke-miterlimit="10"/>
<path d="M52.6656 2.99683C52.6656 2.99683 55.68 12.4816 45.0176 18.0304C34.3552 23.5792 29.2288 23.1504 16.8576 31.2528C4.48636 39.3552 1.49756 57.2816 1.49756 57.2816C1.49756 57.2816 4.47996 49.6016 18.56 48.7504C32.64 47.8992 46.72 47.336 52.2688 47.0416C60.3776 46.6128 64.64 41.9216 64.64 41.9216L52.6656 2.99683Z" fill="#8D8D8D" stroke="#a3b3ff" stroke-miterlimit="10"/>
<path d="M101.082 160.571L52.6656 2.99681C52.6034 2.79596 52.5816 2.5848 52.6015 2.37549C52.6213 2.16618 52.6823 1.96286 52.7811 1.77725C52.8799 1.59164 53.0144 1.42741 53.1769 1.29401C53.3394 1.16062 53.5267 1.0607 53.728 1.00001C54.1328 0.877767 54.5695 0.920087 54.9433 1.11778C55.3171 1.31548 55.5979 1.6526 55.7248 2.05601L104.16 159.643L101.082 160.571Z" fill="#a3b3ff" stroke="#a3b3ff" stroke-miterlimit="10"/>
<path d="M71.5775 81.9216C71.5775 81.9216 71.0399 83.8416 73.3887 84.3728C75.7375 84.904 79.7887 83.7328 79.5775 81.7104C79.3663 79.688 77.7599 79.2528 76.0575 79.4704C74.3551 79.688 71.5775 80.9616 71.5775 81.9216Z" fill="white" stroke="#a3b3ff" stroke-miterlimit="10"/>
<path d="M73.6 75.3104C73.6 75.3104 67.6544 76.2448 67.4048 77.5248C67.1552 78.8048 67.6223 81.7872 69.2096 82.2352C70.7968 82.6832 76.0512 82.1584 76.9984 80.4624C77.9456 78.7664 76.64 75.528 75.4176 75.176C75.1248 75.0566 74.8083 75.0066 74.493 75.0299C74.1776 75.0532 73.872 75.1492 73.6 75.3104Z" fill="white" stroke="#a3b3ff" stroke-miterlimit="10"/>
<path d="M71.9296 71.2144C71.9296 71.2144 65.9776 72.1488 65.728 73.4352C65.4784 74.7216 65.9456 77.6912 67.5392 78.1392C69.1328 78.5872 74.3744 78.0688 75.328 76.3728C76.2816 74.6768 74.9632 71.4384 73.7472 71.0864C73.4548 70.9665 73.1387 70.9157 72.8234 70.9379C72.5082 70.9601 72.2023 71.0547 71.9296 71.2144Z" fill="white" stroke="#a3b3ff" stroke-miterlimit="10"/>
<path d="M70.6815 65.0576C70.6815 65.0576 64.1727 64.6864 63.6415 65.992C63.1103 67.2976 62.8927 70.5424 64.4735 71.3808C66.0543 72.2192 71.7247 72.872 73.1199 71.2912C74.5151 69.7104 73.8687 65.992 72.6591 65.3392C72.3744 65.1411 72.0472 65.0124 71.7038 64.9635C71.3604 64.9146 71.0103 64.9468 70.6815 65.0576Z" fill="white" stroke="#a3b3ff" stroke-miterlimit="10"/>
<path d="M79.7056 67.72C79.7056 67.72 81.3056 64.4496 80.16 62.0112C79.0144 59.5728 76.5056 60.0912 75.4432 60.8656C74.7576 61.387 74.2013 62.0593 73.8176 62.8304C73.8176 62.8304 76.5056 62.7728 77.6576 63.912C78.8096 65.0512 79.7056 67.72 79.7056 67.72Z" fill="#a3b3ff" stroke="#a3b3ff" stroke-miterlimit="10"/>
<path d="M79.2 63.592C79.1214 63.2734 78.9626 62.9801 78.7385 62.7404C78.5144 62.5006 78.2326 62.3223 77.92 62.2224C76.64 61.8064 74.528 61.3712 73.8048 62.8624C72.736 64.9936 72.736 70.5424 75.936 71.6048C79.136 72.6672 79.9872 70.1136 79.776 67.3424C79.6837 66.079 79.4911 64.8249 79.2 63.592Z" fill="white" stroke="#a3b3ff" stroke-miterlimit="10"/>
<path d="M169.677 89.6016C165.837 86.8752 158.701 84.264 152.109 88.4304C145.517 92.5968 145.414 101.902 145.606 105.179C152.333 104.878 163.75 102.216 166.726 99.4192C168.851 97.416 169.491 93.4288 169.677 89.6016Z" fill="#a3b3ff" stroke="#a3b3ff" stroke-miterlimit="10"/>
<path d="M151.219 133.442C150.686 134.025 150.299 134.726 150.091 135.489C149.883 136.251 149.859 137.052 150.022 137.826C150.618 140.386 150.022 162.907 150.022 162.907C150.022 162.907 150.221 168.283 159.578 169.678C168.934 171.074 172.122 168.482 172.122 168.482C172.122 168.482 171.923 140.213 171.725 137.026C171.629 135.165 171.007 133.37 169.933 131.848L151.219 133.442Z" fill="white"/>
<mask id="mask2_1006_169" style="mask-type:luminance" maskUnits="userSpaceOnUse" x="149" y="131" width="24" height="40">
<path d="M151.219 133.442C150.686 134.025 150.299 134.726 150.091 135.489C149.883 136.251 149.859 137.052 150.022 137.826C150.618 140.386 150.022 162.907 150.022 162.907C150.022 162.907 150.221 168.283 159.578 169.678C168.934 171.074 172.122 168.482 172.122 168.482C172.122 168.482 171.923 140.213 171.725 137.026C171.629 135.165 171.007 133.37 169.933 131.848L151.219 133.442Z" fill="white"/>
</mask>
<g mask="url(#mask2_1006_169)">
<g style="mix-blend-mode:multiply" opacity="0.49">
<path d="M169.933 131.88L151.219 133.474C150.686 134.057 150.299 134.758 150.091 135.521C149.883 136.283 149.859 137.084 150.022 137.858C150.24 138.786 150.298 142.286 150.285 146.389L168.262 169.851C171.027 169.397 172.102 168.514 172.102 168.514C172.102 168.514 171.904 140.245 171.706 137.058C171.615 135.199 171.001 133.404 169.933 131.88Z" fill="#8D8D8D"/>
</g>
</g>
<path d="M151.219 133.442C150.686 134.025 150.299 134.726 150.091 135.489C149.883 136.251 149.859 137.052 150.022 137.826C150.618 140.386 150.022 162.907 150.022 162.907C150.022 162.907 150.221 168.283 159.578 169.678C168.934 171.074 172.122 168.482 172.122 168.482C172.122 168.482 171.923 140.213 171.725 137.026C171.629 135.165 171.007 133.37 169.933 131.848L151.219 133.442Z" stroke="#a3b3ff" stroke-miterlimit="10"/>
<path d="M169.536 92.4304C169.536 92.4304 167.347 89.64 159.2 90.0368C151.053 90.4336 147.456 100.194 147.68 102.197C147.904 104.2 149.069 130.869 149.869 133.058C150.669 135.246 159.821 137.237 166.592 136.046C173.363 134.856 173.958 128.878 173.165 124.693C172.371 120.507 171.174 96.0272 171.174 95.2528C171.174 94.4784 170.528 93.6208 169.536 92.4304Z" fill="white"/>
<mask id="mask3_1006_169" style="mask-type:luminance" maskUnits="userSpaceOnUse" x="147" y="89" width="27" height="48">
<path d="M169.536 92.4304C169.536 92.4304 167.347 89.64 159.2 90.0368C151.053 90.4336 147.456 100.194 147.68 102.197C147.904 104.2 149.069 130.869 149.869 133.058C150.669 135.246 159.821 137.237 166.592 136.046C173.363 134.856 173.958 128.878 173.165 124.693C172.371 120.507 171.174 96.0272 171.174 95.2528C171.174 94.4784 170.528 93.6208 169.536 92.4304Z" fill="white"/>
</mask>
<g mask="url(#mask3_1006_169)">
<g style="mix-blend-mode:multiply" opacity="0.49">
<path d="M173.12 124.68C172.32 120.501 171.13 96.0144 171.13 95.24C171.13 94.4656 170.528 93.6464 169.536 92.456C169.114 92.0113 168.61 91.6527 168.051 91.4L167.091 91.7968C167.091 91.7968 167.52 96.0656 167.52 101.614C167.52 107.163 166.24 125.934 166.24 125.934L148.32 105.877L148.134 111.054C148.608 119.688 149.299 131.637 149.824 133.07C150.618 135.259 159.776 137.25 166.547 136.059C173.318 134.869 173.92 128.866 173.12 124.68Z" fill="#8D8D8D"/>
</g>
</g>
<path d="M169.536 92.4304C169.536 92.4304 167.347 89.64 159.2 90.0368C151.053 90.4336 147.456 100.194 147.68 102.197C147.904 104.2 149.069 130.869 149.869 133.058C150.669 135.246 159.821 137.237 166.592 136.046C173.363 134.856 173.958 128.878 173.165 124.693C172.371 120.507 171.174 96.0272 171.174 95.2528C171.174 94.4784 170.528 93.6208 169.536 92.4304Z" stroke="#a3b3ff" stroke-miterlimit="10"/>
<path d="M150.419 133.838C150.419 133.838 156.179 139.016 162.963 138.619C169.747 138.222 171.526 133.838 171.526 133.838C171.526 133.838 172.122 131.848 164.358 130.056C156.595 128.264 150.419 133.838 150.419 133.838Z" fill="#a3b3ff" stroke="#a3b3ff" stroke-miterlimit="10"/>
<path d="M147.533 47.208C158.006 47.208 166.496 38.0388 166.496 26.728C166.496 15.4172 158.006 6.24802 147.533 6.24802C137.06 6.24802 128.57 15.4172 128.57 26.728C128.57 38.0388 137.06 47.208 147.533 47.208Z" fill="#a3b3ff" stroke="#a3b3ff" stroke-miterlimit="10"/>
<path d="M147.533 44.9296C159.367 44.9296 168.96 35.7604 168.96 24.4496C168.96 13.1388 159.367 3.9696 147.533 3.9696C135.699 3.9696 126.106 13.1388 126.106 24.4496C126.106 35.7604 135.699 44.9296 147.533 44.9296Z" fill="white"/>
<mask id="mask4_1006_169" style="mask-type:luminance" maskUnits="userSpaceOnUse" x="126" y="3" width="43" height="42">
<path d="M147.533 44.9296C159.367 44.9296 168.96 35.7604 168.96 24.4496C168.96 13.1388 159.367 3.9696 147.533 3.9696C135.699 3.9696 126.106 13.1388 126.106 24.4496C126.106 35.7604 135.699 44.9296 147.533 44.9296Z" fill="white"/>
</mask>
<g mask="url(#mask4_1006_169)">
<g style="mix-blend-mode:multiply" opacity="0.49">
<path d="M155.731 5.53122C156.461 14.9264 154.118 30.7216 133.018 39.5152C137.035 43.0277 142.196 44.9529 147.533 44.9296C159.366 44.9296 168.96 35.7648 168.96 24.4496C168.96 15.9184 163.494 8.60322 155.731 5.53122Z" fill="#8D8D8D"/>
</g>
</g>
<path d="M147.533 44.9296C159.367 44.9296 168.96 35.7604 168.96 24.4496C168.96 13.1388 159.367 3.9696 147.533 3.9696C135.699 3.9696 126.106 13.1388 126.106 24.4496C126.106 35.7604 135.699 44.9296 147.533 44.9296Z" stroke="#a3b3ff" stroke-miterlimit="10"/>
<path d="M125.818 23.3104C127.125 23.3104 128.186 22.2502 128.186 20.9424C128.186 19.6346 127.125 18.5744 125.818 18.5744C124.51 18.5744 123.45 19.6346 123.45 20.9424C123.45 22.2502 124.51 23.3104 125.818 23.3104Z" fill="white" stroke="#a3b3ff" stroke-miterlimit="10"/>
<path d="M125.818 22.3632C126.602 22.3632 127.238 21.7271 127.238 20.9424C127.238 20.1577 126.602 19.5216 125.818 19.5216C125.033 19.5216 124.397 20.1577 124.397 20.9424C124.397 21.7271 125.033 22.3632 125.818 22.3632Z" fill="white" stroke="#a3b3ff" stroke-miterlimit="10"/>
<path d="M147.245 41.704C156.933 41.704 164.787 35.1251 164.787 27.0096C164.787 18.8941 156.933 12.3152 147.245 12.3152C137.556 12.3152 129.702 18.8941 129.702 27.0096C129.702 35.1251 137.556 41.704 147.245 41.704Z" fill="#a3b3ff" stroke="#a3b3ff" stroke-miterlimit="10"/>
<path d="M133.107 19.9504V26.7792L134.202 21.5888L137.203 27.8736V20.7696L148.96 37.704L140.768 18.856H144.608L141.875 16.3984L146.79 15.0352L140.512 14.4912C140.512 14.4912 135.565 15.8544 133.107 19.9504Z" fill="#8D8D8D"/>
<path d="M183.149 52.4304L183.667 52.7248C186.394 54.2608 199.027 61.4864 202.061 64.7696C205.427 68.456 197.581 73.9088 190.842 75.5088C184.102 77.1088 171.13 65.736 169.203 63.4896C167.277 61.2432 165.517 49.224 170.003 46.984C174.49 44.744 183.149 52.4304 183.149 52.4304Z" fill="white"/>
<mask id="mask5_1006_169" style="mask-type:luminance" maskUnits="userSpaceOnUse" x="167" y="46" width="36" height="30">
<path d="M183.149 52.4304L183.667 52.7248C186.394 54.2608 199.027 61.4864 202.061 64.7696C205.427 68.456 197.581 73.9088 190.842 75.5088C184.102 77.1088 171.13 65.736 169.203 63.4896C167.277 61.2432 165.517 49.224 170.003 46.984C174.49 44.744 183.149 52.4304 183.149 52.4304Z" fill="white"/>
</mask>
<g mask="url(#mask5_1006_169)">
<g style="mix-blend-mode:multiply" opacity="0.49">
<path d="M202.08 64.7696C199.078 61.4864 186.413 54.2608 183.686 52.7248L183.168 52.4304C183.168 52.4304 174.509 44.7504 170.022 46.984C165.536 49.2176 167.302 61.2496 169.222 63.4896C171.246 65.5725 173.443 67.4802 175.789 69.192L188 58.4912L202.541 68.0912C202.819 67.5585 202.925 66.9521 202.842 66.3566C202.76 65.7612 202.493 65.2063 202.08 64.7696Z" fill="#8D8D8D"/>
</g>
</g>
<path d="M183.149 52.4304L183.667 52.7248C186.394 54.2608 199.027 61.4864 202.061 64.7696C205.427 68.456 197.581 73.9088 190.842 75.5088C184.102 77.1088 171.13 65.736 169.203 63.4896C167.277 61.2432 165.517 49.224 170.003 46.984C174.49 44.744 183.149 52.4304 183.149 52.4304Z" stroke="#a3b3ff" stroke-miterlimit="10"/>
<path d="M165.229 41.6912C166.276 40.663 167.515 39.8518 168.877 39.304C178.042 35.8224 182.957 46.2864 184.666 53.4416C184.666 53.4416 182.528 55.1504 177.197 54.2928C171.866 53.4352 164.186 49.8128 163.328 46.824C162.797 44.9616 163.782 43.1248 165.229 41.6912Z" fill="#a3b3ff" stroke="#a3b3ff" stroke-miterlimit="10"/>
<path d="M182.989 72.3024C182.989 72.3024 191.802 61.8896 198.054 61.7296C204.307 61.5696 207.2 66.376 206.56 70.2224C205.92 74.0688 201.114 78.3952 201.114 78.3952C201.114 78.3952 204.48 66.8752 199.507 66.8752C194.534 66.8752 182.989 72.3024 182.989 72.3024Z" fill="#a3b3ff" stroke="#a3b3ff" stroke-miterlimit="10"/>
<path d="M179.782 74.7088C179.782 74.7088 190.362 66.056 197.894 64.936C205.427 63.816 208.134 72.9488 201.094 78.376C194.054 83.8032 189.389 86.056 184.422 85.416C179.456 84.776 175.456 79.8416 179.782 74.7088Z" fill="white"/>
<mask id="mask6_1006_169" style="mask-type:luminance" maskUnits="userSpaceOnUse" x="177" y="64" width="29" height="22">
<path d="M179.782 74.7088C179.782 74.7088 190.362 66.056 197.894 64.936C205.427 63.816 208.134 72.9488 201.094 78.376C194.054 83.8032 189.389 86.056 184.422 85.416C179.456 84.776 175.456 79.8416 179.782 74.7088Z" fill="white"/>
</mask>
<g mask="url(#mask6_1006_169)">
<g style="mix-blend-mode:multiply" opacity="0.49">
<path d="M202.163 65.5632C202.272 67.4256 201.715 72.1936 193.971 75.56C184.16 79.8288 182.189 79.8416 182.189 79.8416C182.48 81.4264 182.208 83.0631 181.421 84.4688C182.354 84.9789 183.374 85.3109 184.429 85.448C189.395 86.088 194.029 83.848 201.101 78.408C206.56 74.1648 206.15 67.7136 202.163 65.5632Z" fill="#8D8D8D"/>
</g>
</g>
<path d="M179.782 74.7088C179.782 74.7088 190.362 66.056 197.894 64.936C205.427 63.816 208.134 72.9488 201.094 78.376C194.054 83.8032 189.389 86.056 184.422 85.416C179.456 84.776 175.456 79.8416 179.782 74.7088Z" stroke="#a3b3ff" stroke-miterlimit="10"/>
<path d="M187.302 83.7072C187.302 83.7072 202.662 77.3072 205.357 68.1232" stroke="#a3b3ff" stroke-width="0.5" stroke-miterlimit="10"/>
<path d="M175.936 78.0752C175.936 78.0752 177.856 75.5152 180.582 75.1888C183.309 74.8624 186.195 78.7152 187.155 81.9216C188.115 85.128 186.835 86.728 185.389 87.208C183.942 87.688 175.936 78.0752 175.936 78.0752Z" fill="#a3b3ff" stroke="#a3b3ff" stroke-miterlimit="10"/>
<path d="M185.389 87.208C185.389 87.208 186.355 84.168 182.189 79.8416C178.022 75.5152 176.576 77.9216 172.89 80.0016C169.203 82.0816 167.923 85.7616 169.523 88.3216C171.123 90.8816 171.77 92.488 176.563 93.288C181.357 94.088 184.096 89.1216 184.096 89.1216C184.74 88.6573 185.198 87.979 185.389 87.208Z" fill="white"/>
<mask id="mask7_1006_169" style="mask-type:luminance" maskUnits="userSpaceOnUse" x="168" y="77" width="18" height="17">
<path d="M185.389 87.208C185.389 87.208 186.355 84.168 182.189 79.8416C178.022 75.5152 176.576 77.9216 172.89 80.0016C169.203 82.0816 167.923 85.7616 169.523 88.3216C171.123 90.8816 171.77 92.488 176.563 93.288C181.357 94.088 184.096 89.1216 184.096 89.1216C184.74 88.6573 185.198 87.979 185.389 87.208Z" fill="white"/>
</mask>
<g mask="url(#mask7_1006_169)">
<g style="mix-blend-mode:multiply" opacity="0.49">
<path d="M178.611 86.6512C175.735 87.6035 172.782 88.3079 169.786 88.7568C171.213 91.0736 172.038 92.5456 176.576 93.3008C181.382 94.1008 184.109 89.1344 184.109 89.1344C184.749 88.6664 185.203 87.9859 185.389 87.2144C185.389 87.2144 186.355 84.1744 182.189 79.848C182.189 79.8416 183.309 84.9488 178.611 86.6512Z" fill="#8D8D8D"/>
</g>
</g>
<path d="M185.389 87.208C185.389 87.208 186.355 84.168 182.189 79.8416C178.022 75.5152 176.576 77.9216 172.89 80.0016C169.203 82.0816 167.923 85.7616 169.523 88.3216C171.123 90.8816 171.77 92.488 176.563 93.288C181.357 94.088 184.096 89.1216 184.096 89.1216C184.74 88.6573 185.198 87.979 185.389 87.208Z" stroke="#a3b3ff" stroke-miterlimit="10"/>
<path d="M184.109 89.1344C184.109 89.1344 180.422 91.3808 178.176 91.5408Z" fill="white"/>
<path d="M184.109 89.1344C184.109 89.1344 180.422 91.3808 178.176 91.5408" stroke="#a3b3ff" stroke-miterlimit="10"/>
<path d="M77.44 193.813C77.44 193.813 71.4688 189.55 77.0176 184.002C82.5664 178.453 86.4 179.733 88.5376 174.613C90.6752 169.493 92.8 160.11 108.589 154.562C124.378 149.013 140.16 153.71 147.84 159.253C155.52 164.795 169.6 168.642 177.28 167.79C184.96 166.939 194.349 174.613 195.629 181.442C196.909 188.27 199.469 189.122 200.749 190.402C202.029 191.682 203.309 195.093 203.309 195.093H87.2576C87.2576 195.093 80.4288 195.95 77.44 193.813Z" fill="#a3b3ff" stroke="#a3b3ff" stroke-miterlimit="10"/>
<path d="M186.938 174.69C186.938 174.69 190.586 180.155 188.307 184.718C186.029 189.282 181.907 189.275 181.907 189.275" stroke="white" stroke-miterlimit="10"/>
<path d="M180.102 186.542C180.102 186.542 180.102 188.36 173.702 190.645" stroke="white" stroke-miterlimit="10"/>
<path d="M120.16 192.456C118.144 193.026 116.736 193.378 116.736 193.378" stroke="white" stroke-miterlimit="10"/>
<path d="M140.954 172.123C138.842 173.89 136.563 176.283 135.878 178.792C134.515 183.803 136.794 184.718 133.146 187.451C131.117 188.974 126.272 190.651 122.374 191.81" stroke="white" stroke-miterlimit="10"/>
<path d="M144.998 169.218C144.998 169.218 144.128 169.73 142.918 170.594" stroke="white" stroke-miterlimit="10"/>
<path d="M125.395 185.173C125.395 185.173 118.995 189.275 113.542 191.099C108.09 192.923 95.7632 189.73 95.7632 189.73" stroke="white" stroke-miterlimit="10"/>
<path d="M94.0096 186.6C91.7938 185.565 89.8843 183.973 88.4672 181.979" stroke="white" stroke-miterlimit="10"/>
<path d="M100.32 188.36C99.0952 188.251 97.8853 188.013 96.7104 187.65" stroke="white" stroke-miterlimit="10"/>
<path d="M132.909 86.7216C127.744 82.376 123.277 82.8816 120.71 83.8096C120.301 85.9088 120.026 87.2528 119.962 87.4512C119.558 88.648 121.152 92.4304 126.131 97.8064C129.313 101.229 133.495 103.558 138.08 104.462C139.315 99.656 139.565 92.328 132.909 86.7216Z" fill="#a3b3ff" stroke="#a3b3ff" stroke-miterlimit="10"/>
<path d="M114.4 153.154C114.4 153.154 105.024 158.12 104.8 163.509C104.576 168.898 110.176 168.885 116.32 167.291C122.464 165.698 130.451 159.125 131.846 158.53C133.242 157.934 138.016 155.144 137.024 151.163C136.032 147.182 130.624 143.4 130.624 143.4L114.4 153.154Z" fill="white" stroke="#a3b3ff" stroke-miterlimit="10"/>
<path d="M137.146 151.566C131.782 155.451 119.866 163.784 114.586 165.301C112.954 165.824 111.221 165.958 109.528 165.69C107.835 165.422 106.229 164.76 104.838 163.758C104.838 168.878 110.304 168.878 116.358 167.291C122.528 165.698 130.49 159.125 131.885 158.53C133.28 157.934 137.734 155.33 137.146 151.566Z" fill="#8D8D8D" stroke="#a3b3ff" stroke-miterlimit="10"/>
<path d="M103.635 131.054C103.635 131.054 110.003 151.534 112.39 153.55C114.778 155.566 124.934 153.947 124.934 153.947C124.934 153.947 127.123 157.934 128.717 159.707C130.31 161.48 135.117 160.104 135.29 155.125C135.462 150.146 132.499 143.182 132.499 143.182L125.734 124.462C125.734 124.462 117.766 122.869 110.374 124.462C102.982 126.056 103.635 131.054 103.635 131.054Z" fill="white"/>
<mask id="mask8_1006_169" style="mask-type:luminance" maskUnits="userSpaceOnUse" x="103" y="123" width="33" height="38">
<path d="M103.635 131.054C103.635 131.054 110.003 151.534 112.39 153.55C114.778 155.566 124.934 153.947 124.934 153.947C124.934 153.947 127.123 157.934 128.717 159.707C130.31 161.48 135.117 160.104 135.29 155.125C135.462 150.146 132.499 143.182 132.499 143.182L125.734 124.462C125.734 124.462 117.766 122.869 110.374 124.462C102.982 126.056 103.635 131.054 103.635 131.054Z" fill="white"/>
</mask>
<g mask="url(#mask8_1006_169)">
<g style="mix-blend-mode:multiply" opacity="0.49">
<path d="M135.29 155.144C135.488 150.165 132.499 143.202 132.499 143.202L125.734 124.482C121.509 123.735 117.199 123.593 112.934 124.059C111.324 124.59 109.671 124.982 107.994 125.23C106.701 125.727 105.57 126.568 104.723 127.662C106.419 128.206 108.352 128.782 110.368 129.32C116.768 131.029 118.899 128.469 120.179 133.589C121.459 138.709 122.906 149.141 124.954 153.947C124.954 153.947 127.142 157.934 128.736 159.707C130.33 161.48 135.091 160.123 135.29 155.144Z" fill="#8D8D8D"/>
</g>
</g>
<path d="M103.635 131.054C103.635 131.054 110.003 151.534 112.39 153.55C114.778 155.566 124.934 153.947 124.934 153.947C124.934 153.947 127.123 157.934 128.717 159.707C130.31 161.48 135.117 160.104 135.29 155.125C135.462 150.146 132.499 143.182 132.499 143.182L125.734 124.462C125.734 124.462 117.766 122.869 110.374 124.462C102.982 126.056 103.635 131.054 103.635 131.054Z" stroke="#a3b3ff" stroke-miterlimit="10"/>
<path d="M132.698 153.058C132.901 154.17 132.964 155.303 132.883 156.43" stroke="#a3b3ff" stroke-width="0.5" stroke-miterlimit="10"/>
<path d="M123.488 129.224C123.488 129.224 130.125 142.024 132.269 150.984" stroke="#a3b3ff" stroke-width="0.5" stroke-miterlimit="10"/>
<path d="M102.835 121.499C102.835 121.499 99.8528 125.282 101.645 129.858C103.437 134.434 110.605 135.618 116.774 133.442C122.944 131.266 126.33 125.877 125.536 123.093C124.742 120.309 102.835 121.499 102.835 121.499Z" fill="#a3b3ff" stroke="#a3b3ff" stroke-miterlimit="10"/>
<path d="M137.478 102.984C137.478 102.984 129.517 121.301 124.339 125.083C119.162 128.866 107.616 129.064 103.437 124.482C99.2575 119.899 104.23 109.154 109.408 100.802C114.586 92.4496 117.171 85.2752 122.944 85.672C128.717 86.0688 138.278 93.224 137.478 102.984Z" fill="white"/>
<mask id="mask9_1006_169" style="mask-type:luminance" maskUnits="userSpaceOnUse" x="101" y="85" width="37" height="43">
<path d="M137.478 102.984C137.478 102.984 129.517 121.301 124.339 125.083C119.162 128.866 107.616 129.064 103.437 124.482C99.2575 119.899 104.23 109.154 109.408 100.802C114.586 92.4496 117.171 85.2752 122.944 85.672C128.717 86.0688 138.278 93.224 137.478 102.984Z" fill="white"/>
</mask>
<g mask="url(#mask9_1006_169)">
<g style="mix-blend-mode:multiply" opacity="0.49">
<path d="M119.731 120.36C115.251 124.13 109.222 125.294 104.71 125.582C109.613 129 119.622 128.526 124.339 125.083C129.517 121.301 137.478 102.984 137.478 102.984C137.647 100.883 137.343 98.7701 136.589 96.8016C134.342 100.91 126.56 114.6 119.731 120.36Z" fill="#8D8D8D"/>
</g>
</g>
<path d="M137.478 102.984C137.478 102.984 129.517 121.301 124.339 125.083C119.162 128.866 107.616 129.064 103.437 124.482C99.2575 119.899 104.23 109.154 109.408 100.802C114.586 92.4496 117.171 85.2752 122.944 85.672C128.717 86.0688 138.278 93.224 137.478 102.984Z" stroke="#a3b3ff" stroke-miterlimit="10"/>
<path d="M119.597 125.864C118.874 126.324 118.104 126.704 117.299 126.997" stroke="#a3b3ff" stroke-width="0.5" stroke-miterlimit="10"/>
<path d="M134.925 104.629C132.454 109.896 127.821 118.709 122.394 123.694" stroke="#a3b3ff" stroke-width="0.5" stroke-miterlimit="10"/>
<path d="M136.845 100.283C136.845 100.283 136.41 101.371 135.622 103.118" stroke="#a3b3ff" stroke-width="0.5" stroke-miterlimit="10"/>
</svg>